# xmcd
#
# Track frame offsets:
#	150
#	13700
#	27499
#	43217
#	59255
#	71462
#	91798
#	102965
#	118390
#	136157
#	149822
#	162160
#	176745
#	186823
#	196404
#	214154
#	225870
#	241597
#	256896
#	270885
#	282548
#	293343
#
# Disc length: 4118 seconds
#
# Revision: 0
# Processed by: cddbd v1.5.2PL0 Copyright (c) Steve Scherf et al.
# Submitted via: audiograbber 1.83.01
#
DISCID=3c101416
DTITLE=E. H. King Music - E. H. King Music 081
DYEAR=2008
DGENRE=Folk
TTITLE0=Braids Flying In The Air - Tammy Powell
TTITLE1=The Lonely Streets Of Town  - Kitty Houston
TTITLE2=Lif´s Treadmill  - Loman Craig
TTITLE3=The Second Time Around  - Don Powell
TTITLE4=Grand Canyon Blues  - Ray R Jones
TTITLE5=Respectable  - Red Atkins
TTITLE6=An Island In The Wind  - Phil Coley
TTITLE7=The Whistling Wind  - Ray R Jones
TTITLE8=Hooray For Hollywood  - Loman Craig
TTITLE9=Wings Of An Eagle  - Jim Barribeau
TTITLE10=Alone With My Guilt  - Ray R Jones
TTITLE11=Simple Memories  - Kitty Houston
TTITLE12=A Pretty Girl - Ray R Jones
TTITLE13=I Had Everything  - Red Atkins
TTITLE14=Don´t Leave Me Lonely  - Ray R Jones
TTITLE15=Dear Jesus  - Kitty Houston
TTITLE16=Don´t Let A Day Go Bye  - Ray R Jones
TTITLE17=Courts Just For Sports  - Loman Craig
TTITLE18=Tiugh Enough To Bluff  - Sonny Payne
TTITLE19=I Love To Live  - Ray R Jones
TTITLE20=Grey Hair Falling Out  - William Sherry
TTITLE21=X-aggerate  - Roger Eydenburgh
EXTD=
EXTT0=
EXTT1=
EXTT2=
EXTT3=
EXTT4=
EXTT5=
EXTT6=
EXTT7=
EXTT8=
EXTT9=
EXTT10=
EXTT11=
EXTT12=
EXTT13=
EXTT14=
EXTT15=
EXTT16=
EXTT17=
EXTT18=
EXTT19=
EXTT20=
EXTT21=
PLAYORDER=
